<mxfile host="app.diagrams.net" modified="2024-02-26T09:26:39.757Z" agent="Mozilla/5.0 (Windows NT 10.0; Win64; x64; rv:123.0) Gecko/20100101 Firefox/123.0" etag="Qy_qt3kSGt7rPtpoDpn7" version="23.1.6" type="device">
  <diagram name="Page-1" id="TDJ_2CpUL4GPjPtg8lUk">
    <mxGraphModel dx="1927" dy="577" grid="1" gridSize="10" guides="1" tooltips="1" connect="1" arrows="1" fold="1" page="1" pageScale="1" pageWidth="850" pageHeight="1100" math="0" shadow="0">
      <root>
        <mxCell id="0" />
        <mxCell id="1" parent="0" />
        <mxCell id="sQkoj2imqyASWS-TUqeU-3" style="edgeStyle=orthogonalEdgeStyle;rounded=0;orthogonalLoop=1;jettySize=auto;html=1;" edge="1" parent="1" source="sQkoj2imqyASWS-TUqeU-1" target="sQkoj2imqyASWS-TUqeU-2">
          <mxGeometry relative="1" as="geometry" />
        </mxCell>
        <mxCell id="sQkoj2imqyASWS-TUqeU-28" style="edgeStyle=orthogonalEdgeStyle;rounded=0;orthogonalLoop=1;jettySize=auto;html=1;entryX=0.5;entryY=0;entryDx=0;entryDy=0;" edge="1" parent="1" source="sQkoj2imqyASWS-TUqeU-1" target="sQkoj2imqyASWS-TUqeU-19">
          <mxGeometry relative="1" as="geometry" />
        </mxCell>
        <mxCell id="sQkoj2imqyASWS-TUqeU-1" value="Client" style="rounded=1;whiteSpace=wrap;html=1;" vertex="1" parent="1">
          <mxGeometry x="-40" y="120" width="160" height="40" as="geometry" />
        </mxCell>
        <mxCell id="sQkoj2imqyASWS-TUqeU-6" style="edgeStyle=orthogonalEdgeStyle;rounded=0;orthogonalLoop=1;jettySize=auto;html=1;entryX=0.5;entryY=0;entryDx=0;entryDy=0;endArrow=diamond;endFill=0;endSize=20;" edge="1" parent="1" source="sQkoj2imqyASWS-TUqeU-2" target="sQkoj2imqyASWS-TUqeU-4">
          <mxGeometry relative="1" as="geometry" />
        </mxCell>
        <mxCell id="sQkoj2imqyASWS-TUqeU-2" value="ObjectStructure" style="rounded=1;whiteSpace=wrap;html=1;" vertex="1" parent="1">
          <mxGeometry x="400" y="120" width="160" height="40" as="geometry" />
        </mxCell>
        <mxCell id="sQkoj2imqyASWS-TUqeU-4" value="Expr" style="swimlane;whiteSpace=wrap;html=1;rounded=1;" vertex="1" parent="1">
          <mxGeometry x="400" y="210" width="160" height="70" as="geometry" />
        </mxCell>
        <mxCell id="sQkoj2imqyASWS-TUqeU-5" value="@abstractmethod&lt;br&gt;def accept()" style="text;html=1;align=center;verticalAlign=middle;resizable=0;points=[];autosize=1;strokeColor=none;fillColor=none;" vertex="1" parent="sQkoj2imqyASWS-TUqeU-4">
          <mxGeometry x="23" y="27" width="120" height="40" as="geometry" />
        </mxCell>
        <mxCell id="sQkoj2imqyASWS-TUqeU-14" style="edgeStyle=orthogonalEdgeStyle;rounded=0;orthogonalLoop=1;jettySize=auto;html=1;endArrow=block;endFill=0;endSize=13;" edge="1" parent="1" source="sQkoj2imqyASWS-TUqeU-7" target="sQkoj2imqyASWS-TUqeU-4">
          <mxGeometry relative="1" as="geometry" />
        </mxCell>
        <mxCell id="sQkoj2imqyASWS-TUqeU-7" value="Binary" style="swimlane;whiteSpace=wrap;html=1;rounded=1;" vertex="1" parent="1">
          <mxGeometry x="280" y="330" width="160" height="70" as="geometry" />
        </mxCell>
        <mxCell id="sQkoj2imqyASWS-TUqeU-8" value="def accept(self)" style="text;html=1;align=center;verticalAlign=middle;resizable=0;points=[];autosize=1;strokeColor=none;fillColor=none;" vertex="1" parent="sQkoj2imqyASWS-TUqeU-7">
          <mxGeometry x="33" y="32" width="100" height="30" as="geometry" />
        </mxCell>
        <mxCell id="sQkoj2imqyASWS-TUqeU-15" style="edgeStyle=orthogonalEdgeStyle;rounded=0;orthogonalLoop=1;jettySize=auto;html=1;endArrow=block;endFill=0;endSize=13;" edge="1" parent="1" source="sQkoj2imqyASWS-TUqeU-9">
          <mxGeometry relative="1" as="geometry">
            <mxPoint x="480" y="279.9999999999999" as="targetPoint" />
            <Array as="points">
              <mxPoint x="600" y="310" />
              <mxPoint x="481" y="310" />
              <mxPoint x="481" y="280" />
            </Array>
          </mxGeometry>
        </mxCell>
        <mxCell id="sQkoj2imqyASWS-TUqeU-9" value="Assign" style="swimlane;whiteSpace=wrap;html=1;rounded=1;" vertex="1" parent="1">
          <mxGeometry x="520" y="330" width="160" height="70" as="geometry" />
        </mxCell>
        <mxCell id="sQkoj2imqyASWS-TUqeU-10" value="def accept(self)" style="text;html=1;align=center;verticalAlign=middle;resizable=0;points=[];autosize=1;strokeColor=none;fillColor=none;" vertex="1" parent="sQkoj2imqyASWS-TUqeU-9">
          <mxGeometry x="33" y="32" width="100" height="30" as="geometry" />
        </mxCell>
        <mxCell id="sQkoj2imqyASWS-TUqeU-12" value="..." style="text;html=1;align=center;verticalAlign=middle;resizable=0;points=[];autosize=1;strokeColor=none;fillColor=none;" vertex="1" parent="1">
          <mxGeometry x="465" y="338" width="30" height="30" as="geometry" />
        </mxCell>
        <mxCell id="sQkoj2imqyASWS-TUqeU-19" value="Operation" style="swimlane;whiteSpace=wrap;html=1;rounded=1;" vertex="1" parent="1">
          <mxGeometry x="-40" y="210" width="160" height="70" as="geometry" />
        </mxCell>
        <mxCell id="sQkoj2imqyASWS-TUqeU-20" value="visit definitions" style="text;html=1;align=center;verticalAlign=middle;resizable=0;points=[];autosize=1;strokeColor=none;fillColor=none;" vertex="1" parent="sQkoj2imqyASWS-TUqeU-19">
          <mxGeometry x="33" y="32" width="100" height="30" as="geometry" />
        </mxCell>
        <mxCell id="sQkoj2imqyASWS-TUqeU-21" style="edgeStyle=orthogonalEdgeStyle;rounded=0;orthogonalLoop=1;jettySize=auto;html=1;endArrow=block;endFill=0;endSize=13;" edge="1" parent="1" source="sQkoj2imqyASWS-TUqeU-22" target="sQkoj2imqyASWS-TUqeU-19">
          <mxGeometry relative="1" as="geometry" />
        </mxCell>
        <mxCell id="sQkoj2imqyASWS-TUqeU-22" value="SubOperation" style="swimlane;whiteSpace=wrap;html=1;rounded=1;" vertex="1" parent="1">
          <mxGeometry x="-160" y="330" width="160" height="70" as="geometry" />
        </mxCell>
        <mxCell id="sQkoj2imqyASWS-TUqeU-23" value="stuff" style="text;html=1;align=center;verticalAlign=middle;resizable=0;points=[];autosize=1;strokeColor=none;fillColor=none;" vertex="1" parent="sQkoj2imqyASWS-TUqeU-22">
          <mxGeometry x="58" y="32" width="50" height="30" as="geometry" />
        </mxCell>
        <mxCell id="sQkoj2imqyASWS-TUqeU-24" style="edgeStyle=orthogonalEdgeStyle;rounded=0;orthogonalLoop=1;jettySize=auto;html=1;endArrow=block;endFill=0;endSize=13;" edge="1" parent="1" source="sQkoj2imqyASWS-TUqeU-25">
          <mxGeometry relative="1" as="geometry">
            <mxPoint x="40" y="279.9999999999999" as="targetPoint" />
            <Array as="points">
              <mxPoint x="160" y="310" />
              <mxPoint x="41" y="310" />
              <mxPoint x="41" y="280" />
            </Array>
          </mxGeometry>
        </mxCell>
        <mxCell id="sQkoj2imqyASWS-TUqeU-25" value="SubOperation" style="swimlane;whiteSpace=wrap;html=1;rounded=1;" vertex="1" parent="1">
          <mxGeometry x="80" y="330" width="160" height="70" as="geometry" />
        </mxCell>
        <mxCell id="sQkoj2imqyASWS-TUqeU-26" value="stuff" style="text;html=1;align=center;verticalAlign=middle;resizable=0;points=[];autosize=1;strokeColor=none;fillColor=none;" vertex="1" parent="sQkoj2imqyASWS-TUqeU-25">
          <mxGeometry x="58" y="32" width="50" height="30" as="geometry" />
        </mxCell>
        <mxCell id="sQkoj2imqyASWS-TUqeU-27" value="..." style="text;html=1;align=center;verticalAlign=middle;resizable=0;points=[];autosize=1;strokeColor=none;fillColor=none;" vertex="1" parent="1">
          <mxGeometry x="25" y="338" width="30" height="30" as="geometry" />
        </mxCell>
      </root>
    </mxGraphModel>
  </diagram>
</mxfile>
